<svg id="visual" viewBox="0 0 900 400" width="900" height="400" xmlns="http://www.w3.org/2000/svg" xmlns:xlink="http://www.w3.org/1999/xlink" version="1.1"><rect x="0" y="0" width="900" height="400" fill="#212529"></rect><path d="M0 167L18.8 177.3C37.7 187.7 75.3 208.3 112.8 220.5C150.3 232.7 187.7 236.3 225.2 225.2C262.7 214 300.3 188 337.8 175C375.3 162 412.7 162 450.2 176.7C487.7 191.3 525.3 220.7 562.8 222.2C600.3 223.7 637.7 197.3 675.2 195.3C712.7 193.3 750.3 215.7 787.8 216C825.3 216.3 862.7 194.7 881.3 183.8L900 173L900 401L881.3 401C862.7 401 825.3 401 787.8 401C750.3 401 712.7 401 675.2 401C637.7 401 600.3 401 562.8 401C525.3 401 487.7 401 450.2 401C412.7 401 375.3 401 337.8 401C300.3 401 262.7 401 225.2 401C187.7 401 150.3 401 112.8 401C75.3 401 37.7 401 18.8 401L0 401Z" fill="#273940"></path><path d="M0 233L18.8 241.3C37.7 249.7 75.3 266.3 112.8 263.7C150.3 261 187.7 239 225.2 219.8C262.7 200.7 300.3 184.3 337.8 184.5C375.3 184.7 412.7 201.3 450.2 210.7C487.7 220 525.3 222 562.8 218.2C600.3 214.3 637.7 204.7 675.2 200.3C712.7 196 750.3 197 787.8 202.5C825.3 208 862.7 218 881.3 223L900 228L900 401L881.3 401C862.7 401 825.3 401 787.8 401C750.3 401 712.7 401 675.2 401C637.7 401 600.3 401 562.8 401C525.3 401 487.7 401 450.2 401C412.7 401 375.3 401 337.8 401C300.3 401 262.7 401 225.2 401C187.7 401 150.3 401 112.8 401C75.3 401 37.7 401 18.8 401L0 401Z" fill="#335660"></path><path d="M0 295L18.8 293.7C37.7 292.3 75.3 289.7 112.8 283.7C150.3 277.7 187.7 268.3 225.2 271.5C262.7 274.7 300.3 290.3 337.8 300.5C375.3 310.7 412.7 315.3 450.2 314.7C487.7 314 525.3 308 562.8 307.7C600.3 307.3 637.7 312.7 675.2 300.7C712.7 288.7 750.3 259.3 787.8 246.7C825.3 234 862.7 238 881.3 240L900 242L900 401L881.3 401C862.7 401 825.3 401 787.8 401C750.3 401 712.7 401 675.2 401C637.7 401 600.3 401 562.8 401C525.3 401 487.7 401 450.2 401C412.7 401 375.3 401 337.8 401C300.3 401 262.7 401 225.2 401C187.7 401 150.3 401 112.8 401C75.3 401 37.7 401 18.8 401L0 401Z" fill="#3e7480"></path><path d="M0 281L18.8 288.8C37.7 296.7 75.3 312.3 112.8 316.2C150.3 320 187.7 312 225.2 301.3C262.7 290.7 300.3 277.3 337.8 283C375.3 288.7 412.7 313.3 450.2 315C487.7 316.7 525.3 295.3 562.8 296C600.3 296.7 637.7 319.3 675.2 329C712.7 338.7 750.3 335.3 787.8 335C825.3 334.7 862.7 337.3 881.3 338.7L900 340L900 401L881.3 401C862.7 401 825.3 401 787.8 401C750.3 401 712.7 401 675.2 401C637.7 401 600.3 401 562.8 401C525.3 401 487.7 401 450.2 401C412.7 401 375.3 401 337.8 401C300.3 401 262.7 401 225.2 401C187.7 401 150.3 401 112.8 401C75.3 401 37.7 401 18.8 401L0 401Z" fill="#4994a0"></path><path d="M0 320L18.8 326.8C37.7 333.7 75.3 347.3 112.8 349.7C150.3 352 187.7 343 225.2 337.5C262.7 332 300.3 330 337.8 334.3C375.3 338.7 412.7 349.3 450.2 348.5C487.7 347.7 525.3 335.3 562.8 335.7C600.3 336 637.7 349 675.2 348.7C712.7 348.3 750.3 334.7 787.8 331.2C825.3 327.7 862.7 334.3 881.3 337.7L900 341L900 401L881.3 401C862.7 401 825.3 401 787.8 401C750.3 401 712.7 401 675.2 401C637.7 401 600.3 401 562.8 401C525.3 401 487.7 401 450.2 401C412.7 401 375.3 401 337.8 401C300.3 401 262.7 401 225.2 401C187.7 401 150.3 401 112.8 401C75.3 401 37.7 401 18.8 401L0 401Z" fill="#54b5bf"></path></svg>